<svg width="50" height="50" viewBox="0 0 50 50" fill="none" xmlns="http://www.w3.org/2000/svg">
<g id="np_arrow-up-on-circle_3319175_000000 1" clip-path="url(#clip0_23_449)">
<g id="Group">
<path id="Vector" d="M49.666 24.8994C49.666 11.2667 38.5761 0.176757 24.9434 0.176757C11.3107 0.176756 0.220729 11.2667 0.220729 24.8994C0.220728 38.5321 11.3107 49.622 24.9434 49.622C38.5736 49.622 49.666 38.5321 49.666 24.8994ZM2.75406 24.8994C2.75406 12.6648 12.7088 2.71261 24.9434 2.71261C37.178 2.71261 47.1327 12.6648 47.1327 24.8994C47.1327 37.134 37.178 47.0862 24.9434 47.0862C12.7063 47.0886 2.75406 37.134 2.75406 24.8994Z" fill="#BBBDBF"/>
<path id="Vector_2" d="M26.4322 12.1074L24.6387 13.8984L34.3601 23.6324L12.4677 23.6324L12.4677 26.1677L34.3576 26.1677L24.6387 35.8866L26.4322 37.6776L39.207 24.9028L26.4322 12.1074Z" fill="#BBBDBF"/>
</g>
</g>
<defs>
<clipPath id="clip0_23_449">
<rect width="50" height="50" fill="white" transform="translate(50) rotate(90)"/>
</clipPath>
</defs>
</svg>
