<svg class="img imgfit" xmlns="http://www.w3.org/2000/svg" viewBox="0 0 300 168.16"><title>logo line up RD web</title><rect width="300" height="168.16" style="fill:#fff"/><g style="opacity:0.32"><path d="M73.44,53.24H59.15v59.65c.57.09,14,.06,14.29,0V89.18a6.07,6.07,0,0,1,.06-.85A3.81,3.81,0,0,1,77.25,85c2.88,0,5.75,0,8.63,0a3.79,3.79,0,0,1,2.94,1.45A3.86,3.86,0,0,1,89.65,89c0,1.5,0,3,0,4.49v18.94c0,.16,0,.31,0,.48h14.27c0-.15,0-.26,0-.38V86.47a18.46,18.46,0,0,0-.53-4.37,12.17,12.17,0,0,0-1.64-4,12.72,12.72,0,0,0-5-4.39,18.19,18.19,0,0,0-8-1.89c-3.44,0-6.88,0-10.32,0a3.15,3.15,0,0,0-.44,0l-2.38.27a6.44,6.44,0,0,0-1.79.39l-.42.14ZM225.91,71.87v.5q0,11.61,0,23.22a5,5,0,0,1-.07,1,3.56,3.56,0,0,1-2.27,2.86,4.61,4.61,0,0,1-1.69.31c-2.58,0-5.16,0-7.74,0a7.53,7.53,0,0,1-1.42-.16A3.32,3.32,0,0,1,210.45,98a4.36,4.36,0,0,1-.59-2.28V72.14a2.48,2.48,0,0,0,0-.27H195.47V96.42c0,.8,0,1.6.09,2.39a18.16,18.16,0,0,0,.77,4.26,13.54,13.54,0,0,0,3,5.08,12.45,12.45,0,0,0,3.61,2.75,18.11,18.11,0,0,0,4.47,1.56,19.83,19.83,0,0,0,4.34.47h13.93c.06,0,.15,0,.18,0,.13-.19.32-.14.49-.15a15.53,15.53,0,0,0,3.33-.38,12.52,12.52,0,0,0,4.55-1.9,12.83,12.83,0,0,0,3.95-4.4,17.28,17.28,0,0,0,2.13-8.4c0-8.49,0-17,0-25.47,0-.1,0-.21,0-.33Zm-81.12,0v1.36c0,4,0,7.93,0,11.9q0,5.25,0,10.5a5.34,5.34,0,0,1-.31,1.73,3.26,3.26,0,0,1-2.07,2.1,4.86,4.86,0,0,1-1.77.32c-2.55,0-5.11,0-7.66,0a7.13,7.13,0,0,1-1-.07A3.68,3.68,0,0,1,129,97.55a4.56,4.56,0,0,1-.39-1.86V72.29c0-.14,0-.28,0-.42h-14.3V97.12a21.29,21.29,0,0,0,.46,4.57,13.74,13.74,0,0,0,2.69,5.79,13.36,13.36,0,0,0,5.53,4,20.33,20.33,0,0,0,7.59,1.42h13.93c.07,0,.17,0,.2-.06s.2-.11.32-.12c.9-.07,1.79-.1,2.68-.23a12.25,12.25,0,0,0,7.52-4,12.66,12.66,0,0,0,2.27-3.42,19.6,19.6,0,0,0,1.64-8q0-12.42,0-24.84c0-.12,0-.23,0-.36Zm39.6,41c.08-.45.06-59.42,0-59.68H170.16a.7.7,0,0,0,0,.12q0,29.62,0,59.24a2.11,2.11,0,0,0,0,.26s0,0,0,0l0,0Z" style="fill:#1f2120"/><path d="M73.44,53.24V72.68l.42-.14a6.44,6.44,0,0,1,1.79-.39L78,71.88a3.15,3.15,0,0,1,.44,0c3.44,0,6.88,0,10.32,0a18.19,18.19,0,0,1,8,1.89,12.72,12.72,0,0,1,5,4.39,12.17,12.17,0,0,1,1.64,4,18.46,18.46,0,0,1,.53,4.37v26.06c0,.12,0,.23,0,.38H89.67c0-.17,0-.32,0-.48V93.49c0-1.5,0-3,0-4.49a3.86,3.86,0,0,0-.83-2.54A3.79,3.79,0,0,0,85.88,85c-2.88,0-5.75,0-8.63,0a3.81,3.81,0,0,0-3.75,3.33,6.07,6.07,0,0,0-.06.85v23.68c-.29.09-13.72.12-14.29,0V53.24Z" style="fill:#1f2120"/><path d="M225.91,71.87h14.37c0,.12,0,.23,0,.33,0,8.49,0,17,0,25.47a17.28,17.28,0,0,1-2.13,8.4,12.83,12.83,0,0,1-3.95,4.4,12.52,12.52,0,0,1-4.55,1.9,15.53,15.53,0,0,1-3.33.38c-.17,0-.36,0-.49.15,0,0-.12,0-.18,0H211.73a19.83,19.83,0,0,1-4.34-.47,18.11,18.11,0,0,1-4.47-1.56,12.45,12.45,0,0,1-3.61-2.75,13.54,13.54,0,0,1-3-5.08,18.16,18.16,0,0,1-.77-4.26c-.06-.79-.09-1.59-.09-2.39V71.87h14.36a2.48,2.48,0,0,1,0,.27V95.73a4.36,4.36,0,0,0,.59,2.28,3.32,3.32,0,0,0,2.27,1.61,7.53,7.53,0,0,0,1.42.16c2.58,0,5.16,0,7.74,0a4.61,4.61,0,0,0,1.69-.31,3.56,3.56,0,0,0,2.27-2.86,5,5,0,0,0,.07-1q0-11.61,0-23.22Z" style="fill:#1f2120"/><path d="M144.79,71.87h14.35c0,.13,0,.24,0,.36q0,12.42,0,24.84a19.6,19.6,0,0,1-1.64,8,12.66,12.66,0,0,1-2.27,3.42,12.25,12.25,0,0,1-7.52,4c-.89.13-1.78.16-2.68.23-.12,0-.24,0-.32.12s-.13,0-.2.06H130.6a20.33,20.33,0,0,1-7.59-1.42,13.36,13.36,0,0,1-5.53-4,13.74,13.74,0,0,1-2.69-5.79,21.29,21.29,0,0,1-.46-4.57V71.87h14.3c0,.14,0,.28,0,.42v23.4a4.56,4.56,0,0,0,.39,1.86A3.68,3.68,0,0,0,132,99.71a7.13,7.13,0,0,0,1,.07c2.55,0,5.11,0,7.66,0a4.86,4.86,0,0,0,1.77-.32,3.26,3.26,0,0,0,2.07-2.1,5.34,5.34,0,0,0,.31-1.73q0-5.25,0-10.5c0-4,0-7.93,0-11.9Z" style="fill:#1f2120"/><path d="M184.39,112.91h-14.2l0,0s0,0,0,0a2.11,2.11,0,0,1,0-.26q0-29.61,0-59.24a.7.7,0,0,1,0-.12h14.21C184.45,53.49,184.47,112.46,184.39,112.91Z" style="fill:#1f2120"/></g></svg>