<svg class="img imgfit" xmlns="http://www.w3.org/2000/svg" viewBox="0 0 300 168.16"><title>logo line up RD web</title><rect width="300" height="168.16" style="fill:#fff"/><rect x="298.56" width="300" height="168.16" style="fill:#fff"/><g style="opacity:0.35000000000000003"><path d="M125.38,53.4c7.79.2,13.28,3.49,16.78,10A13.67,13.67,0,0,1,143.83,70a36.38,36.38,0,0,1-.32,5.12,15.18,15.18,0,0,1-3.84,7.75,16.63,16.63,0,0,1-6.87,4.87,29.61,29.61,0,0,1-5.19,1.2,17.48,17.48,0,0,1-6.48-.44,16.42,16.42,0,0,1-7-3.53,16.88,16.88,0,0,1-4.86-6.4,18.17,18.17,0,0,1-1.34-9.53,17.36,17.36,0,0,1,11.48-14.54,24.36,24.36,0,0,1,3.16-.8C123.64,53.53,124.73,53.47,125.38,53.4Zm.53,8a8.18,8.18,0,0,0-6.5,2.69,10.1,10.1,0,0,0-2.31,10.34,9.05,9.05,0,0,0,16.77,1.94,10.71,10.71,0,0,0,.72-8.37A9.06,9.06,0,0,0,125.91,61.36Z" style="fill:#1f2120"/><path d="M83.58,68.46c0,.47,0,.93,0,1.4,0,3.21.1,6.41.16,9.62q.09,4,.21,8c0,.82-.1,1-.91,1-2.23,0-4.45,0-6.68,0-.75,0-.86-.12-.86-.88q0-16.28,0-32.53c0-.78.1-.9.91-.9,1.85,0,3.71,0,5.56,0a1.61,1.61,0,0,1,1.62.92c1.89,3.11,3.82,6.2,5.73,9.3l6.15,10a5.53,5.53,0,0,0,.47.59l.19,0c0-.81,0-1.61,0-2.42,0-.46-.07-.91-.08-1.37,0-3.19,0-6.37,0-9.56,0-2.24-.13-4.48-.22-6.72,0-.58.35-.64.77-.64h6.94c.76,0,.86.11.86.88V84.38c0,1.1,0,2.19,0,3.28,0,.53-.21.76-.73.76-2.16,0-4.32,0-6.48,0-.51,0-.72-.31-1-.67l-5.09-8L84.21,68.88a3.72,3.72,0,0,0-.4-.49Z" style="fill:#1f2120"/><path d="M263.45,74.78v-3c0-.28,0-.56-.05-.85,0-3.35-.08-6.71-.13-10.06,0-2-.06-4-.14-5.95,0-.59.2-.77.75-.77,2.27,0,4.54,0,6.81,0,.88,0,.94.06.94,1q0,9.49,0,19,0,6.67,0,13.35c0,.93-.06,1-1,1-2,0-3.93,0-5.89,0a1.31,1.31,0,0,1-1.24-.67q-3.75-5.94-7.53-11.87c-1.48-2.34-3-4.67-4.47-7a1.16,1.16,0,0,0-.54-.47,5.59,5.59,0,0,0-.09.7q.07,4.95.17,9.88.08,4.22.17,8.43c0,.91-.06,1-.94,1H243.6c-.77,0-.85-.09-.85-.88q0-16.32,0-32.65c0-.56.18-.79.75-.78,2.07,0,4.15,0,6.22,0a1.4,1.4,0,0,1,1,.58c2.95,4.72,5.86,9.45,8.78,14.18l3.42,5.5c.1.15.24.29.35.44Z" style="fill:#1f2120"/><path d="M49.81,68.47a5,5,0,0,0-.08.66c0,2.92.05,5.85.1,8.77.05,3.2.13,6.4.19,9.61,0,.86-.06.92-.93.92H42.48c-.83,0-.9-.08-.9-.89q0-16.29,0-32.59c0-.65.25-.83.85-.83q3,0,6.08,0a1.06,1.06,0,0,1,1,.56q4,6.53,8,13l4.14,6.67c.12.19.27.37.41.56.09-.08.15-.11.15-.14q0-3-.07-5.94c0-.11,0-.22,0-.33Q62.07,61.76,62,55c0-.77.09-.86.87-.86H69.6c.77,0,.84.08.84.88V86.87c0,1.58.28,1.56-1.53,1.55s-3.58,0-5.37,0a1.28,1.28,0,0,1-1.22-.69Q56.65,78.8,51,69.86c-.31-.49-.64-1-1-1.44Z" style="fill:#1f2120"/><path d="M177.32,67.22c-1.24,0-2.48,0-3.73,0a1.15,1.15,0,0,1-1.2-.78,8.22,8.22,0,0,0-5.79-4.87,8.52,8.52,0,0,0-10.27,5.49,10.34,10.34,0,0,0,1.81,11.19,8.21,8.21,0,0,0,7.44,2.85c3.18-.33,5.28-2.17,6.77-4.85a1.3,1.3,0,0,1,1.29-.76c2.51,0,5,0,7.53,0,.72,0,.83.12.63.8a17,17,0,0,1-9,10.9,18.57,18.57,0,0,1-21-3.52,17.17,17.17,0,0,1-5-13.1,17,17,0,0,1,2.18-8.13,17.19,17.19,0,0,1,7.45-7.12,18.6,18.6,0,0,1,15.9-.37,16.73,16.73,0,0,1,8.54,8.57,29.27,29.27,0,0,1,1.08,2.93c.19.51,0,.74-.55.74C180,67.21,178.65,67.22,177.32,67.22Z" style="fill:#1f2120"/><path d="M235.35,88.42h-3.8c-.87,0-1.05-.15-1.3-1-.35-1.15-.74-2.28-1.08-3.43a.76.76,0,0,0-.86-.6H217.84a.69.69,0,0,0-.78.52c-.45,1.29-.95,2.57-1.4,3.86a.76.76,0,0,1-.8.61c-2.73,0-5.46,0-8.18,0-.59,0-.7-.21-.49-.73,1-2.38,1.91-4.77,2.87-7.15q2-5,4-10.07l5.08-12.75c.4-1,.77-2,1.23-3a1.15,1.15,0,0,1,.85-.54c1.91,0,3.83-.06,5.75,0a1.13,1.13,0,0,1,.83.57c1.08,2.59,2.1,5.21,3.14,7.82q2,5,4,10,2.2,5.6,4.42,11.19c.5,1.27,1,2.55,1.51,3.83.3.76.24.84-.6.85Zm-12-22.77-.23,0a4.59,4.59,0,0,0-.27.6c-.41,1.33-.81,2.66-1.23,4-.56,1.81-1.13,3.61-1.68,5.42-.18.58,0,.75.58.75h5.23c.71,0,.83-.21.62-.9-.62-2-1.22-4-1.83-6C224.11,68.21,223.71,66.93,223.31,65.65Z" style="fill:#1f2120"/><path d="M185,71.22c0-5.43,0-10.86,0-16.29,0-.68.31-.81.87-.81h17.28c.95,0,1,.06,1,1,0,2,0,4,0,6,0,.8-.1.92-.9.92h-8.76c-.86,0-.93.07-.94.94,0,1.11,0,2.22,0,3.33,0,.68.26.81.85.81,2.77,0,5.54,0,8.31,0,1,0,1.08.06,1.08,1.06,0,1.92,0,3.84,0,5.76,0,.9-.1,1-1,1h-8.25c-.9,0-1,.06-1,1v3.73c0,.91.07,1,1,1h8.63c.91,0,1,.1,1,1q0,3,0,6c0,.72-.12.84-.91.84H186c-.89,0-1-.09-1-1V71.22Z" style="fill:#1f2120"/><path d="M28.38,71.3V54.68c0-.83.06-.87.9-.87h7.4c.83,0,.88,0,.88.88q0,16.62,0,33.25c0,.59-.17.81-.78.81q-3.8,0-7.59,0c-.61,0-.84-.19-.84-.83C28.39,82.38,28.38,76.84,28.38,71.3Z" style="fill:#1f2120"/><path d="M96.37,111.63c.29-1,.59-2,.87-3L99.37,101c.31-1.09.6-2.19.93-3.27.06-.2.25-.48.41-.5a4.94,4.94,0,0,1,1.27.08.79.79,0,0,1,0,.47c-.66,2.31-1.33,4.61-2,6.91s-1.35,4.73-2,7.1c-.19.69-.41,1.38-.58,2.07a.79.79,0,0,1-.9.65c-1.58,0-1.53,0-1.92-1.54-.64-2.57-1.36-5.13-2-7.7-.33-1.24-.65-2.48-1-3.72a2,2,0,0,0-.32-.52c-.13.18-.34.33-.39.53-1,3.93-2.08,7.88-3.13,11.81-.1.38-.28,1-.54,1a4.73,4.73,0,0,1-1.8,0c-.16,0-.33-.38-.4-.61-.44-1.51-.86-3-1.29-4.53-.71-2.49-1.41-5-2.12-7.48-.39-1.36-.79-2.71-1.18-4.07-.09-.32,0-.5.35-.55,1-.14,1.26,0,1.55.95.59,2,1.15,4.07,1.72,6.1s1.17,4.1,1.75,6.16c.07.27.1.56.19.82a1.52,1.52,0,0,0,.28.4c.13-.13.32-.24.36-.39.29-1,.55-1.93.81-2.89.57-2.15,1.14-4.29,1.72-6.44.34-1.26.72-2.51,1-3.78.16-.65.43-1,1.16-.94s.86.39,1,1c.68,2.57,1.39,5.13,2.09,7.69.46,1.68.91,3.36,1.38,5a8.78,8.78,0,0,0,.33.85Z" style="fill:#1f2120"/><path d="M174.8,100.83a2.91,2.91,0,0,0-.36.64c-.91,3.43-1.8,6.87-2.7,10.3-.18.68-.37,1.35-.53,2a.77.77,0,0,1-.88.68c-1.88-.08-1.4.36-2-1.58-.73-2.46-1.43-4.94-2.13-7.41-.56-2-1.12-3.93-1.67-5.9-.17-.59-.33-1.18-.51-1.76-.13-.43,0-.65.47-.67,1.05,0,1.11,0,1.41,1,.69,2.36,1.33,4.74,2,7.11q.68,2.38,1.34,4.78c.09.31.13.64.23.95a4.83,4.83,0,0,0,.36.67l.21,0c.15-.49.31-1,.44-1.46.68-2.48,1.34-5,2-7.44.45-1.64.92-3.27,1.34-4.92.18-.72.69-.65,1.22-.65s.67.35.79.78q1.47,5.35,3,10.71c.18.67.33,1.35.52,2,.09.34.24.67.42,1.16a3.83,3.83,0,0,0,.32-.52q1.73-6.17,3.43-12.33c.13-.44.26-.88.4-1.32a1.25,1.25,0,0,1,1.52-.47c.46.22.19.59.1.91L183.84,104l-2.16,7.53c-.21.73-.42,1.47-.61,2.2a.84.84,0,0,1-1,.74c-1.8-.06-1.37.26-1.86-1.48-1-3.67-2-7.36-3-11-.1-.36-.19-.73-.29-1.09Z" style="fill:#1f2120"/><path d="M111.79,96.9a8.9,8.9,0,0,1,9.09,8.87,9,9,0,0,1-9.19,9,9.13,9.13,0,0,1-9.11-8.85A9,9,0,0,1,111.79,96.9Zm7.36,8.92a7.41,7.41,0,1,0-14.81.06,7.41,7.41,0,0,0,14.81-.06Z" style="fill:#1f2120"/><path d="M148.17,105.81V98c0-.8.07-.89.84-.87,2.13.06,4.28,0,6.39.23a7.86,7.86,0,0,1,6.78,5.32,8.63,8.63,0,0,1-2.81,10,9.73,9.73,0,0,1-5.91,1.77c-1.5,0-3,0-4.51,0-.6,0-.8-.2-.8-.8C148.18,111.05,148.17,108.43,148.17,105.81Zm1.73,0h0V112c0,.76.12.88.86.89,1,0,2.06.06,3.08,0,2.74-.17,5-1.15,6.38-3.73a7,7,0,0,0-5.51-10.27c-1.3-.11-2.61-.08-3.92-.1-.8,0-.89.1-.89.92Z" style="fill:#1f2120"/><path d="M193,105.86c0-2.62,0-5.24,0-7.85,0-.79.06-.87.86-.85,2.09.06,4.19,0,6.27.21a8.22,8.22,0,0,1,7.25,6.62,8.65,8.65,0,0,1-3.74,9.08,10.31,10.31,0,0,1-5.31,1.39c-1.51,0-3,0-4.52,0-.6,0-.83-.18-.83-.83,0-2.59,0-5.19,0-7.78Zm1.7-.08c0,2.12,0,4.23,0,6.35,0,.55.19.79.76.78,1.09,0,2.18,0,3.27,0a8.07,8.07,0,0,0,4.31-1.35,7.21,7.21,0,0,0,2.59-7.58,6.93,6.93,0,0,0-5.95-5.06c-1.39-.11-2.79-.06-4.18-.12-.6,0-.81.19-.8.79C194.76,101.64,194.74,103.71,194.74,105.78Z" style="fill:#1f2120"/><path d="M129.81,108.13l4.59,6.08a1.92,1.92,0,0,1-2.39-.28q-2.46-3.25-4.91-6.54a6.11,6.11,0,0,1-.38-.71l.86-.06a16.77,16.77,0,0,0,3-.4,3.71,3.71,0,0,0,2.6-3.75,3.85,3.85,0,0,0-3.3-3.56c-1.49-.16-3-.1-4.51-.12-.5,0-.51.36-.51.73v6.81c0,2.48,0,5,0,7.45,0,.66-.32.72-.82.69s-.93.09-.92-.66c0-5.21,0-10.42,0-15.64,0-1,0-1,1-1,1.88,0,3.75,0,5.62.15a5.07,5.07,0,0,1,4.57,3.1,5.27,5.27,0,0,1-3.13,7.31Z" style="fill:#1f2120"/><path d="M210.32,105.82c0-2.62,0-5.24,0-7.85,0-.63.2-.83.83-.82,2.61,0,5.23,0,7.85,0,.63,0,.79.26.78.82s-.13.85-.77.84c-2,0-4.05,0-6.08,0-.81,0-.89.09-.89.91,0,1.46,0,2.92,0,4.38,0,.76.11.87.87.88,1.92,0,3.84,0,5.76,0,.57,0,.83.13.84.76s-.23.83-.85.82c-1.9,0-3.8,0-5.69,0-.85,0-.93.08-.93.94,0,1.51,0,3,0,4.51,0,.86.08,1,.92,1,2,0,4,0,6,0,.6,0,.81.2.81.79s-.19.81-.8.8q-3.91,0-7.85,0c-.61,0-.84-.15-.83-.8C210.34,111.05,210.32,108.43,210.32,105.82Z" style="fill:#1f2120"/><path d="M137.58,105.79V98c0-.77.08-.81.87-.85s.8.26.8.85c0,4.65,0,9.29,0,13.94,0,.9,0,1,1,1,1.81,0,3.62,0,5.43,0,.59,0,.81.17.82.78s-.2.81-.79.81c-2.45,0-4.89,0-7.33,0-.56,0-.77-.19-.76-.77C137.6,111.06,137.58,108.43,137.58,105.79Z" style="fill:#1f2120"/><path d="M189.83,106v8c0,.82,0,.83-.85.82-1.51,0-1.34.18-1.34-1.38,0-5.23,0-10.47,0-15.7,0-.48.13-.66.63-.65,1.56,0,1.56,0,1.56,1.54V106Z" style="fill:#1f2120"/></g></svg>