<svg class="img imgfit" xmlns="http://www.w3.org/2000/svg" viewBox="0 0 300 168.16"><title>logo line up RD web</title><rect width="300" height="168.16" style="fill:#fff"/><g style="opacity:0.35000000000000003"><polygon points="44.44 61.61 40.39 81.06 18.02 85.11 40.39 89.16 44.44 108.61 48.49 89.16 70.86 85.11 48.49 81.06 44.44 61.61" style="fill:#010101"/><path d="M56.2,89.94l3-.54v23.21H74.07v2.75H56.2Z" style="fill:#231f20"/><path d="M82.16,88.92v26.44h-3V88.92Z" style="fill:#231f20"/><path d="M102.71,115.82c-8.31,0-13.45-6-13.45-13.64,0-7.29,5.33-13.71,13.26-13.71A13.92,13.92,0,0,1,112.38,92l-1.93,2.27a11.22,11.22,0,0,0-8-3c-5.86,0-10,5-10,10.88,0,6.35,4,11,10.46,11a12.45,12.45,0,0,0,7.63-2.65v-6.57h-8v-2.68h10.92v10.54A16,16,0,0,1,102.71,115.82Z" style="fill:#231f20"/><path d="M123.94,103.46v11.9h-3V88.92h3v11.75h15.27V88.92h3v26.44h-3v-11.9Z" style="fill:#231f20"/><path d="M159.08,115.36h-3V91.68h-8.88V88.92H168v2.76h-8.88Z" style="fill:#231f20"/><path d="M175.32,88.92v26.44h-3V88.92Z" style="fill:#231f20"/><path d="M203.92,88.92h2.91v26.44h-2.38L187.38,93.68v21.68h-2.91V88.92h2.79l16.66,21.19Z" style="fill:#231f20"/><path d="M228,115.82c-8.31,0-13.45-6-13.45-13.64,0-7.29,5.33-13.71,13.26-13.71A13.92,13.92,0,0,1,237.66,92l-1.93,2.27a11.22,11.22,0,0,0-8-3c-5.86,0-10.05,5-10.05,10.88,0,6.35,4,11,10.46,11a12.47,12.47,0,0,0,7.63-2.65v-6.57h-8v-2.68H238.6v10.54A16,16,0,0,1,228,115.82Z" style="fill:#231f20"/><path d="M66.41,71.31H62l0,10-5.79-1V52.8H67c6.31,0,10.13,3.74,10.13,9.14V62C77.1,68.13,72.34,71.31,66.41,71.31Zm4.79-9.26c0-2.61-1.81-4-4.72-4H62v8.08H66.6c2.9,0,4.6-1.74,4.6-4Z" style="fill:#231f20"/><path d="M97.5,79.24l-5.67-8.46H87.26v8.46H81.44V52.8H93.53c6.24,0,10,3.28,10,8.72v.08a8.22,8.22,0,0,1-5.67,8.2l6.46,9.44Zm.11-17.42c0-2.49-1.73-3.77-4.57-3.77H87.26v7.59h5.9c2.83,0,4.45-1.51,4.45-3.74Z" style="fill:#231f20"/><path d="M121.38,79.69c-8.16,0-14-6.08-14-13.6V66a13.68,13.68,0,0,1,14.09-13.68c8.16,0,14,6.08,14,13.6V66A13.67,13.67,0,0,1,121.38,79.69Zm8-13.67a8,8,0,0,0-8-8.31,7.91,7.91,0,0,0-7.94,8.23V66a8,8,0,0,0,8,8.31,7.91,7.91,0,0,0,7.94-8.24Z" style="fill:#231f20"/><path d="M152.51,79.69c-8.24,0-13.9-5.78-13.9-13.6V66a13.57,13.57,0,0,1,13.86-13.68A14.54,14.54,0,0,1,162.86,56l-3.66,4.42a9.77,9.77,0,0,0-6.92-2.68c-4.23,0-7.59,3.74-7.59,8.23V66c0,4.83,3.32,8.38,8,8.38a9.24,9.24,0,0,0,5.47-1.58V69h-5.85V64H163.8V75.5A17.18,17.18,0,0,1,152.51,79.69Z" style="fill:#231f20"/><path d="M186.66,79.24,181,70.78h-4.57v8.46h-5.82V52.8H182.7c6.23,0,10,3.28,10,8.72v.08A8.22,8.22,0,0,1,187,69.8l6.46,9.44Zm.12-17.42c0-2.49-1.74-3.77-4.58-3.77h-5.77v7.59h5.89c2.83,0,4.46-1.51,4.46-3.74Z" style="fill:#231f20"/><path d="M198.93,79.24V52.8h19.95V58H204.71v5.37h12.47v5.17H204.71v5.56h14.36v5.17Z" style="fill:#231f20"/><path d="M235.39,79.62a16.86,16.86,0,0,1-11.22-4.23l3.44-4.12a12.15,12.15,0,0,0,7.9,3.21c2.38,0,3.81-.94,3.81-2.49v-.08c0-1.47-.91-2.23-5.33-3.36-5.32-1.36-8.76-2.83-8.76-8.09v-.07c0-4.8,3.85-8,9.26-8a15.32,15.32,0,0,1,9.82,3.36l-3,4.38a12.46,12.46,0,0,0-6.88-2.6c-2.23,0-3.4,1-3.4,2.3v.08c0,1.73,1.13,2.3,5.7,3.47,5.37,1.4,8.39,3.33,8.39,7.93v.08C245.1,76.67,241.1,79.62,235.39,79.62Z" style="fill:#231f20"/><path d="M260.27,79.62a16.83,16.83,0,0,1-11.22-4.23l3.43-4.12a12.17,12.17,0,0,0,7.9,3.21c2.38,0,3.81-.94,3.81-2.49v-.08c0-1.47-.9-2.23-5.32-3.36-5.33-1.36-8.76-2.83-8.76-8.09v-.07c0-4.8,3.85-8,9.25-8a15.32,15.32,0,0,1,9.82,3.36l-3,4.38a12.43,12.43,0,0,0-6.88-2.6c-2.22,0-3.4,1-3.4,2.3v.08c0,1.73,1.14,2.3,5.71,3.47,5.36,1.4,8.39,3.33,8.39,7.93v.08C270,76.67,266,79.62,260.27,79.62Z" style="fill:#231f20"/><path d="M244,89.19h-1.66v-.51h3.88v.51h-1.66v4.43H244Z" style="fill:#231f20"/><path d="M247.28,88.68h.57l1.8,2.69,1.8-2.69H252v4.94h-.56v-4l-1.8,2.64h0l-1.8-2.64v4h-.55Z" style="fill:#231f20"/></g></svg>