<svg class="img imgfit" xmlns="http://www.w3.org/2000/svg" viewBox="0 0 300 168.16"><defs><linearGradient id="a" x1="60.31" y1="59.04" x2="151.42" y2="59.04" gradientUnits="userSpaceOnUse"><stop offset="0.29" stop-color="#010101" stop-opacity="0.4"/><stop offset="0.35" stop-color="#272626" stop-opacity="0.52"/><stop offset="0.46" stop-color="#676666" stop-opacity="0.72"/><stop offset="0.55" stop-color="#969494" stop-opacity="0.87"/><stop offset="0.62" stop-color="#b2b0b0" stop-opacity="0.97"/><stop offset="0.66" stop-color="#bdbbbb"/></linearGradient></defs><title>logo line up RD web</title><rect x="-1.44" width="300" height="168.16" style="fill:#fff"/><g style="opacity:0.35000000000000003"><path d="M182.26,41.36h-2.83a.35.35,0,0,1-.35-.35V39.49a.34.34,0,0,1,.35-.35h8.08a.35.35,0,0,1,.36.35V41a.36.36,0,0,1-.36.35h-2.83V51.74a.35.35,0,0,1-.35.35h-1.72a.35.35,0,0,1-.35-.35Z" style="fill:#09070b"/><path d="M191.64,39.49a.35.35,0,0,1,.35-.35h7.53a.34.34,0,0,1,.35.35V41a.35.35,0,0,1-.35.35H194v3h4.58a.37.37,0,0,1,.35.36v1.53a.35.35,0,0,1-.35.35H194v3.24h5.48a.35.35,0,0,1,.35.35v1.52a.34.34,0,0,1-.35.35H192a.35.35,0,0,1-.35-.35Z" style="fill:#09070b"/><path d="M207.09,45.45l-3.7-5.79a.33.33,0,0,1,.31-.52h2.15a.35.35,0,0,1,.29.16l2.37,3.93h0l2.41-3.93a.34.34,0,0,1,.29-.16h2.15a.34.34,0,0,1,.32.52L210,45.45l3.84,6.12a.33.33,0,0,1-.31.52h-2a.36.36,0,0,1-.31-.16l-2.65-4.24h-.05l-2.61,4.24a.43.43,0,0,1-.32.16h-2a.34.34,0,0,1-.33-.52Z" style="fill:#09070b"/><path d="M216.23,51.61,222,39.16a.35.35,0,0,1,.32-.21h.18a.33.33,0,0,1,.32.21l5.7,12.45a.33.33,0,0,1-.32.48h-1.61a.53.53,0,0,1-.53-.37l-.91-2H219.6l-.91,2a.55.55,0,0,1-.54.37h-1.61A.33.33,0,0,1,216.23,51.61Zm8-3.94-1.85-4.07h-.05l-1.82,4.07Z" style="fill:#09070b"/><path d="M231.27,50.28l.67-1.15a.43.43,0,0,1,.63-.13,6.05,6.05,0,0,0,2.79,1.15A1.54,1.54,0,0,0,237,48.72c0-.94-.79-1.59-2.35-2.22-1.73-.7-3.47-1.81-3.47-4,0-1.65,1.22-3.56,4.16-3.56a6.56,6.56,0,0,1,3.7,1.24.45.45,0,0,1,.11.61l-.7,1.06a.49.49,0,0,1-.65.22,6.1,6.1,0,0,0-2.57-1,1.48,1.48,0,0,0-1.63,1.3c0,.87.68,1.46,2.18,2.07,1.8.72,3.87,1.8,3.87,4.18,0,1.91-1.65,3.67-4.26,3.67a5.9,5.9,0,0,1-4.07-1.45C231.2,50.67,231.1,50.57,231.27,50.28Z" style="fill:#09070b"/><path d="M174.25,61.15a6.67,6.67,0,1,1-6.65,6.68A6.65,6.65,0,0,1,174.25,61.15Zm0,10.92A4.26,4.26,0,1,0,170,67.83,4.26,4.26,0,0,0,174.25,72.07Z" style="fill:#09070b"/><path d="M185,61.69a.34.34,0,0,1,.35-.35h5.29a4,4,0,0,1,4,4,4.08,4.08,0,0,1-2.73,3.74l2.53,4.7a.34.34,0,0,1-.31.53h-1.95a.31.31,0,0,1-.29-.16l-2.46-4.91H187.4v4.72a.35.35,0,0,1-.35.35h-1.7a.34.34,0,0,1-.35-.35Zm5.44,5.55a1.88,1.88,0,0,0,1.83-1.89,1.84,1.84,0,0,0-1.83-1.79h-3v3.68Z" style="fill:#09070b"/><path d="M204.7,61.15a7,7,0,0,1,4.52,1.72.37.37,0,0,1,0,.52l-1.15,1.21a.33.33,0,0,1-.48,0,4.19,4.19,0,0,0-2.8-1.08,4.27,4.27,0,0,0,0,8.53,5.73,5.73,0,0,0,2.2-.46V70h-1.48a.34.34,0,0,1-.35-.34V68.22a.34.34,0,0,1,.35-.35h3.56a.35.35,0,0,1,.33.35V73a.35.35,0,0,1-.15.3,9.34,9.34,0,0,1-4.59,1.2,6.66,6.66,0,0,1,0-13.31Z" style="fill:#09070b"/><path d="M212.14,73.81l5.75-12.45a.35.35,0,0,1,.32-.21h.18a.33.33,0,0,1,.32.21l5.7,12.45a.33.33,0,0,1-.32.48h-1.61a.53.53,0,0,1-.53-.37l-.91-2h-5.53l-.91,2a.55.55,0,0,1-.54.37h-1.61A.33.33,0,0,1,212.14,73.81Zm8-3.94-1.85-4.07h-.05l-1.82,4.07Z" style="fill:#09070b"/><path d="M227.76,61.49a.35.35,0,0,1,.35-.34h.46l7.7,8.18h0V61.69a.35.35,0,0,1,.35-.35h1.7a.35.35,0,0,1,.35.35V74.14a.35.35,0,0,1-.35.34h-.44L230.16,66h0v8a.34.34,0,0,1-.35.35h-1.68a.35.35,0,0,1-.35-.35Z" style="fill:#09070b"/><path d="M154.74,94.68l.67-1.15a.43.43,0,0,1,.63-.13,6.05,6.05,0,0,0,2.79,1.15,1.55,1.55,0,0,0,1.69-1.43c0-.94-.8-1.59-2.35-2.22-1.74-.7-3.48-1.81-3.48-4,0-1.65,1.22-3.56,4.16-3.56a6.56,6.56,0,0,1,3.7,1.24.45.45,0,0,1,.11.61l-.7,1.06a.49.49,0,0,1-.65.22,6,6,0,0,0-2.57-1,1.48,1.48,0,0,0-1.63,1.3c0,.87.69,1.46,2.19,2.07,1.79.72,3.86,1.8,3.86,4.18,0,1.91-1.64,3.67-4.25,3.67a5.9,5.9,0,0,1-4.07-1.45C154.67,95.07,154.58,95,154.74,94.68Z" style="fill:#09070b"/><path d="M166.27,83.89a.37.37,0,0,1,.35-.35h1.72a.36.36,0,0,1,.36.35v4.9h6v-4.9a.35.35,0,0,1,.35-.35h1.7a.36.36,0,0,1,.35.35V96.14a.35.35,0,0,1-.35.35h-1.7a.35.35,0,0,1-.35-.35V91h-6v5.11a.35.35,0,0,1-.36.35h-1.72a.36.36,0,0,1-.35-.35Z" style="fill:#09070b"/><path d="M179.56,96l5.75-12.45a.35.35,0,0,1,.32-.21h.18a.33.33,0,0,1,.32.21L191.82,96a.32.32,0,0,1-.31.48H189.9a.53.53,0,0,1-.54-.37l-.9-2h-5.54l-.9,2a.56.56,0,0,1-.54.37h-1.61A.32.32,0,0,1,179.56,96Zm8-3.94L185.7,88h-.06l-1.81,4.07Z" style="fill:#09070b"/><path d="M194.25,83.89a.35.35,0,0,1,.35-.35h5.29a4,4,0,0,1,4,4,4.09,4.09,0,0,1-2.74,3.74l2.53,4.7a.34.34,0,0,1-.31.53h-1.95a.32.32,0,0,1-.29-.16l-2.46-4.91h-2.06v4.72a.35.35,0,0,1-.35.35h-1.7a.35.35,0,0,1-.35-.35Zm5.44,5.55a1.88,1.88,0,0,0,1.83-1.89,1.84,1.84,0,0,0-1.83-1.79h-3v3.68Z" style="fill:#09070b"/><path d="M207.31,83.89a.37.37,0,0,1,.35-.35h1.72a.36.36,0,0,1,.35.35V96.14a.35.35,0,0,1-.35.35h-1.72a.36.36,0,0,1-.35-.35Z" style="fill:#09070b"/><path d="M213.84,83.69a.35.35,0,0,1,.35-.34h.47l7.69,8.18h0V83.89a.35.35,0,0,1,.35-.35h1.71a.37.37,0,0,1,.35.35V96.34a.35.35,0,0,1-.35.34H224l-7.73-8.5h0v8a.35.35,0,0,1-.35.35h-1.69a.36.36,0,0,1-.35-.35Z" style="fill:#09070b"/><path d="M234.6,83.35a7,7,0,0,1,4.52,1.72.37.37,0,0,1,0,.52L238,86.8a.33.33,0,0,1-.48,0,4.19,4.19,0,0,0-2.8-1.08,4.27,4.27,0,0,0,0,8.53,5.73,5.73,0,0,0,2.2-.46V92.22h-1.48a.34.34,0,0,1-.35-.33V90.42a.34.34,0,0,1,.35-.35H239a.35.35,0,0,1,.33.35v4.74a.35.35,0,0,1-.15.3,9.34,9.34,0,0,1-4.59,1.2,6.66,6.66,0,0,1,0-13.31Z" style="fill:#09070b"/><path d="M140.57,118.21l5.76-12.45a.32.32,0,0,1,.31-.21h.19a.32.32,0,0,1,.31.21l5.7,12.45a.33.33,0,0,1-.32.48h-1.6a.53.53,0,0,1-.54-.37l-.91-2h-5.53l-.91,2a.55.55,0,0,1-.54.37h-1.61A.33.33,0,0,1,140.57,118.21Zm8-3.94-1.85-4.07h-.05l-1.81,4.07Z" style="fill:#09070b"/><path d="M156.37,106.09a.35.35,0,0,1,.35-.35h1.71a.37.37,0,0,1,.35.35v10.38h4.72a.35.35,0,0,1,.35.35v1.52a.35.35,0,0,1-.35.35h-6.78a.35.35,0,0,1-.35-.35Z" style="fill:#09070b"/><path d="M167.57,106.09a.35.35,0,0,1,.35-.35h1.7a.36.36,0,0,1,.35.35v10.38h4.72a.35.35,0,0,1,.35.35v1.52a.35.35,0,0,1-.35.35h-6.77a.34.34,0,0,1-.35-.35Z" style="fill:#09070b"/><path d="M178.76,106.09a.37.37,0,0,1,.35-.35h1.72a.36.36,0,0,1,.35.35v12.25a.35.35,0,0,1-.35.35h-1.72a.36.36,0,0,1-.35-.35Z" style="fill:#09070b"/><path d="M184.72,118.21l5.75-12.45a.35.35,0,0,1,.32-.21H191a.33.33,0,0,1,.32.21l5.7,12.45a.33.33,0,0,1-.32.48h-1.61a.51.51,0,0,1-.53-.37l-.91-2h-5.53l-.91,2a.55.55,0,0,1-.54.37H185A.32.32,0,0,1,184.72,118.21Zm8-3.94-1.85-4.07h-.05L189,114.27Z" style="fill:#09070b"/><path d="M200.52,105.89a.35.35,0,0,1,.35-.34h.46l7.7,8.18h0v-7.64a.35.35,0,0,1,.35-.35h1.7a.37.37,0,0,1,.36.35v12.45a.35.35,0,0,1-.36.34h-.44l-7.74-8.5h0v8a.35.35,0,0,1-.35.35h-1.69a.36.36,0,0,1-.35-.35Z" style="fill:#09070b"/><path d="M222.41,105.55a6.31,6.31,0,0,1,4.48,1.72.36.36,0,0,1,0,.52L225.78,109a.3.3,0,0,1-.47,0,4.32,4.32,0,0,0-2.84-1.09,4.29,4.29,0,0,0,0,8.58,4.41,4.41,0,0,0,2.83-1,.35.35,0,0,1,.47,0l1.15,1.18a.36.36,0,0,1,0,.5,6.37,6.37,0,0,1-4.5,1.8,6.67,6.67,0,1,1,0-13.33Z" style="fill:#09070b"/><path d="M231.18,106.09a.35.35,0,0,1,.35-.35h7.53a.35.35,0,0,1,.35.35v1.52a.35.35,0,0,1-.35.35h-5.48v3h4.58a.37.37,0,0,1,.35.36v1.53a.35.35,0,0,1-.35.35h-4.58v3.24h5.48a.35.35,0,0,1,.35.35v1.52a.34.34,0,0,1-.35.35h-7.53a.35.35,0,0,1-.35-.35Z" style="fill:#09070b"/></g><path d="M122.37,114v-2.85h-.85a.23.23,0,0,1-.23-.24v-.13a.24.24,0,0,1,.23-.23h2.33a.23.23,0,0,1,.23.23v.13a.23.23,0,0,1-.23.24H123V114a.24.24,0,0,1-.24.23h-.16A.23.23,0,0,1,122.37,114Zm2.11,0,.64-3.28a.24.24,0,0,1,.23-.18h.05a.3.3,0,0,1,.21.13l1,2.59,1-2.59a.3.3,0,0,1,.21-.13h0a.25.25,0,0,1,.23.18l.65,3.29a.23.23,0,0,1-.23.27h-.15a.25.25,0,0,1-.23-.21l-.42-2-.87,2.15a.26.26,0,0,1-.2.11h-.07a.27.27,0,0,1-.21-.12L125.5,112l-.43,2a.27.27,0,0,1-.23.19h-.12A.24.24,0,0,1,124.48,113.92Z" style="fill:#bdbbbb"/><path d="M137.45,73.88l-32.13,34.4a1.24,1.24,0,0,1-1.86,0L89.15,91.44A1.23,1.23,0,0,0,88,91a29.09,29.09,0,0,1-4.29.33h-.14a1.24,1.24,0,0,0-1,2l20.64,24.21a1.25,1.25,0,0,0,1.86,0L142,78.14Z" style="fill:#bdbbbb"/><path d="M127.87,36.1c-15.09,0-21.49,12.69-25,22.21C98.73,69.23,91.7,75.74,84.06,75.74h0c-11.34,0-17.46-8.48-17.46-16.39a17.18,17.18,0,0,1,17.31-17,16.68,16.68,0,0,1,11.08,4.3,1.25,1.25,0,0,0,2-.31c.57-1.07,1.19-2.15,1.87-3.22a1.27,1.27,0,0,0-.27-1.65A23,23,0,0,0,83.86,36.1,23.43,23.43,0,0,0,60.31,59.35a22.61,22.61,0,0,0,6.33,15.54A23.92,23.92,0,0,0,84,82h.08c10.34,0,19.55-8,24.67-21.48,4.67-12.73,10.39-18.16,19.14-18.16,10.19,0,17.31,7,17.31,17.15,0,3.31-2,8.16-4.57,11l-3.34,3.58,4.56,4.26,3.39-3.63c3.65-4.08,6.2-10.33,6.2-15.21C151.42,45.93,141.52,36.1,127.87,36.1Z" style="fill:url(#a)"/></svg>