<svg class="img imgfit" xmlns="http://www.w3.org/2000/svg" viewBox="0 0 300 168.16"><title>logo line up RD web</title><rect width="300" height="168.16" style="fill:#fff"/><rect x="96.41" y="4.95" width="107.18" height="107.18" style="opacity:0.30000000000000004"/><path d="M150,34.21c-20.24,0-35.73,10.43-35.73,24.33,0,13.43,15.1,24.33,35.73,24.33S185.73,72,185.73,58.54c0-13.9-15.49-24.33-35.73-24.33m22.28,10.43c.74,3-2.75,6.75-14,8-.75-7.64-3-14.1-6.77-15.46a45,45,0,0,1,14,2.51c3.91,1.47,6.33,3.35,6.74,5M155.62,58.42c0,9.68-2.9,13.69-5.62,13.69s-5.62-4-5.62-13.69v-.1c1.8.15,3.68.23,5.62.23s3.82-.08,5.62-.23v.1M150,53c-1.9,0-3.65-.05-5.27-.15.85-6.33,3.12-10,5.27-10s4.42,3.68,5.27,10c-1.62.1-3.37.15-5.27.15m-22.28-8.38c.4-1.61,2.8-3.48,6.68-5a45,45,0,0,1,14.08-2.53c-3.75,1.36-6,7.82-6.76,15.46-11.25-1.23-14.74-5-14-8m-8.18,13a16.41,16.41,0,0,1,3.76-10.57c.31,5.43,7.66,9.48,18.14,10.91v.42c0,13.11,3.36,20.06,7.08,21.49-16-.57-29-10.43-29-22.25m31.87,22.25c3.75-1.49,7.15-9,7.15-21.49V58c10.48-1.43,17.83-5.48,18.14-10.91a16.41,16.41,0,0,1,3.76,10.57c0,11.84-13,21.7-29.05,22.25" style="fill:#fff"/><path d="M204.59,152.66l3.34-8.76,3.34,8.76Zm6.81-13.74h-6.94l-9.71,23.77h6l2.21-5.8h9.9l2.21,5.8h6Zm-49,19.63c-3.92,0-7.09-3.53-7.09-7.89s3.17-7.9,7.09-7.9,7.09,3.54,7.09,7.9-3.18,7.89-7.09,7.89m0-20.45A12.56,12.56,0,1,0,175,150.66a12.56,12.56,0,0,0-12.56-12.56m-49.55,20.45c-3.91,0-7.08-3.53-7.08-7.89s3.17-7.9,7.08-7.9,7.09,3.54,7.09,7.9-3.17,7.89-7.09,7.89m0-20.45a12.56,12.56,0,1,0,12.56,12.56,12.55,12.55,0,0,0-12.56-12.56m31,.82-6.15,9.61-6.16-9.61h-6l9.53,14.9v8.87h5.29v-8.86l9.53-14.91Zm52.1,0H175.7v4.56h7.52v19.21h5.31V143.48H196ZM78.9,143.48h7.53v19.21h5.3V143.48h7.5v-4.56H78.9Z" style="fill:#1f2120;opacity:0.35000000000000003"/></svg>