<svg class="img imgfit" xmlns="http://www.w3.org/2000/svg" viewBox="0 0 300 168.16"><title>logo line up RD web</title><rect width="300" height="168.16" style="fill:#fff"/><g style="opacity:0.35000000000000003"><path d="M247.32,86.06c0-7-4.27-14.15-12.95-14.15-9.15,0-15.22,8-15.22,16.15a14.88,14.88,0,0,0,14.55,15.22H234c10.21,0,13.42-8.14,13.42-9.4,0-.48-.2-.74-.6-.74-.8,0-.94,1.8-3.34,3.5a11.31,11.31,0,0,1-6.9,2c-8.34,0-11.28-5.87-11.38-12.55ZM225,84.46c.13-6.34,4.46-11.39,9.27-11.39,4.48,0,7,3.14,7,11.39ZM193.06,54c-9.14,3.51-11.38,2.4-11.38,3.61,0,1.53,5.34-.33,5.34,4.14V98.08c0,4.2-4.94,2.2-4.94,4,0,.61.33.81,1.07.81,1.66,0,3.2-.14,6.87-.14s5.26.14,6.88.14c.74,0,1.07-.2,1.07-.81,0-1.8-4.94.2-4.94-4V79.92c3.2-2.94,5.81-4.54,9.63-4.54,3.4,0,4.54,1.6,4.54,4.38V98.08c0,4.2-4.94,2.2-4.94,4,0,.61.33.81,1.07.81,1.66,0,3.21-.14,6.88-.14s5.21.14,6.87.14c.74,0,1.07-.2,1.07-.81,0-1.8-4.94.2-4.94-4V78.81c0-3.94-2.14-6.88-7.54-6.88-5,0-9.42,3.74-12.62,6.14V54Zm-14.22,18.4H169.9V62.56h-.14a22.43,22.43,0,0,1-10.41,13v.14h4.5V94.3c0,5.75,2.63,9,7.89,9,6.55,0,9.35-5.26,9.35-6a.48.48,0,0,0-.43-.53h0c-.93,0-1.81,3.35-5.54,3.35-3.2,0-5.21-1.34-5.21-5.75V75.65h7.74ZM139.72,98.08c0,4.2-4.94,2.2-4.94,4,0,.61.33.81,1.07.81,1.66,0,3.2-.14,6.88-.14s5.2.14,6.87.14c.74,0,1.07-.2,1.07-.81,0-1.8-4.94.2-4.94-4V88.8c0-7.27,2.63-11.69,5.4-11.69,2.47,0,2.21,1.6,4.48,1.6a3.1,3.1,0,0,0,3.41-3.2c0-2.14-1.47-3.6-4.15-3.6-2.93,0-5.93,1.6-9,8.68h-.13V71.91c-7.35,3.13-11.22,2.25-11.22,3.47,0,1.67,5.26-.2,5.26,4.54V98.08Zm-23.65,5.2A15.69,15.69,0,1,0,100.6,87.39c0,.07,0,.14,0,.21a15.62,15.62,0,0,0,15.49,15.68Zm0-1.6c-6.67,0-9.07-6.94-9.07-14.08s2.4-14.09,9.07-14.09,9.08,6.95,9.08,14.09-2.39,14.08-9.07,14.08Zm-36-23.76a11.84,11.84,0,0,1-.73-2.07c0-3,3.8-1.6,3.8-2.94,0-.47-.46-.6-1.13-.6-1.35,0-3.74.1-6.6.1s-4.34-.13-5.68-.13c-.53,0-.67.13-.67.66,0,1,2.47,0,4,3.51l2.06,4.87L69.87,94.87,63.49,78.78a9.45,9.45,0,0,1-.87-3.5c0-2.41,2.94-1.34,2.94-2.47,0-.4-.4-.53-1.54-.53-.73,0-2.47.13-5.26.13-2.14,0-3.8-.13-4.81-.13s-1.34.13-1.34.57c0,1.2,2.14-.41,3.51,3.19l10.31,26.65c.34.79.6,1.13,1.13,1.13s.81-.34,1.07-1.13l7.22-19.77,7.67,19.76c.34.8.54,1.13,1.07,1.13s.81-.33,1.14-1.13l9.14-22.9C97.81,72.44,101,74.11,101,73c0-.54-.33-.73-1.13-.73s-2.81.13-5.08.13-3.74-.13-4.67-.13c-.74,0-1,.19-1,.73,0,1.34,4-.06,4,4.47,0,1.41-1.33,5.81-2.63,9.15L87,95.34Z" style="fill:#09070b"/></g></svg>